<svg width="1623" height="746" viewBox="0 0 1623 746" fill="none" xmlns="http://www.w3.org/2000/svg">
<path d="M20.8 161V31H109.2V59.8H55.2V80.2H101.2V109H55.2V132.2H111.2V161H20.8ZM163.122 161L124.722 31H161.122L174.722 87.8C176.589 94.7333 178.189 101.6 179.522 108.4C180.989 115.067 182.589 121.933 184.322 129H185.122C186.989 121.933 188.589 115.067 189.922 108.4C191.389 101.6 192.989 94.7333 194.722 87.8L207.922 31H243.122L204.722 161H163.122ZM260.644 161V31H349.044V59.8H295.044V80.2H341.044V109H295.044V132.2H351.044V161H260.644ZM375.766 161V31H410.566L432.366 89L442.966 118.2H443.766C442.966 111.133 441.966 103.133 440.766 94.2C439.566 85.1333 438.966 76.6 438.966 68.6V31H471.766V161H436.966L415.166 102.8L404.566 73.8H403.766C404.566 81.1333 405.566 89.2667 406.766 98.2C407.966 107 408.566 115.4 408.566 123.4V161H375.766ZM526.488 161V59.8H489.088V31H598.288V59.8H560.888V161H526.488ZM14.4 341V211H49.4L60 253.4L63.6 270.2H64.4L68 253.4L78.6 211H113.6V341H85.2V310.4C85.2 306.533 85.3333 301.667 85.6 295.8C86 289.933 86.4 283.8 86.8 277.4C87.2 270.867 87.6667 264.667 88.2 258.8C88.7333 252.933 89.2 248.133 89.6 244.4H89L78 283L71.2 306.6H56L48.8 283L38.8 244.4H38C38.4 248.133 38.8667 252.933 39.4 258.8C39.9333 264.667 40.4 270.867 40.8 277.4C41.2 283.8 41.5333 289.933 41.8 295.8C42.2 301.667 42.4 306.533 42.4 310.4V341H14.4ZM123.922 341L163.122 211H204.722L243.922 341H207.522L192.922 277.8C191.589 271.533 190.055 264.733 188.322 257.4C186.589 250.067 184.989 243.133 183.522 236.6H182.722C181.389 243.133 179.922 250.067 178.322 257.4C176.722 264.733 175.189 271.533 173.722 277.8L159.122 341H123.922ZM152.122 313.4V286.8H215.322V313.4H152.122ZM255.844 341V211H290.644L312.444 269L323.044 298.2H323.844C323.044 291.133 322.044 283.133 320.844 274.2C319.644 265.133 319.044 256.6 319.044 248.6V211H351.844V341H317.044L295.244 282.8L284.644 253.8H283.844C284.644 261.133 285.644 269.267 286.844 278.2C288.044 287 288.644 295.4 288.644 303.4V341H255.844ZM363.766 341L402.966 211H444.566L483.766 341H447.366L432.766 277.8C431.432 271.533 429.899 264.733 428.166 257.4C426.432 250.067 424.832 243.133 423.366 236.6H422.566C421.232 243.133 419.766 250.067 418.166 257.4C416.566 264.733 415.032 271.533 413.566 277.8L398.966 341H363.766ZM391.966 313.4V286.8H455.166V313.4H391.966ZM552.688 343.4C541.621 343.4 531.421 341 522.088 336.2C512.888 331.267 505.488 323.867 499.888 314C494.421 304.133 491.688 291.8 491.688 277C491.688 262.333 494.421 249.933 499.888 239.8C505.488 229.533 512.888 221.8 522.088 216.6C531.421 211.267 541.688 208.6 552.888 208.6C561.688 208.6 569.288 210.333 575.688 213.8C582.088 217.133 587.421 221 591.688 225.4L572.888 246.6C570.221 243.933 567.354 241.867 564.288 240.4C561.354 238.933 557.554 238.2 552.888 238.2C548.221 238.2 543.888 239.733 539.888 242.8C536.021 245.733 532.888 250 530.488 255.6C528.221 261.2 527.088 267.933 527.088 275.8C527.088 283.933 528.088 290.867 530.088 296.6C532.088 302.2 535.154 306.467 539.288 309.4C543.421 312.333 548.554 313.8 554.688 313.8C556.288 313.8 557.888 313.6 559.488 313.2C561.221 312.8 562.554 312.2 563.488 311.4V293.4H547.288V265.4H594.088V327.4C589.688 331.4 583.754 335.067 576.288 338.4C568.821 341.733 560.954 343.4 552.688 343.4ZM620.409 341V211H708.809V239.8H654.809V260.2H700.809V289H654.809V312.2H710.809V341H620.409ZM733.931 341V211H768.931L779.531 253.4L783.131 270.2H783.931L787.531 253.4L798.131 211H833.131V341H804.731V310.4C804.731 306.533 804.865 301.667 805.131 295.8C805.531 289.933 805.931 283.8 806.331 277.4C806.731 270.867 807.198 264.667 807.731 258.8C808.265 252.933 808.731 248.133 809.131 244.4H808.531L797.531 283L790.731 306.6H775.531L768.331 283L758.331 244.4H757.531C757.931 248.133 758.398 252.933 758.931 258.8C759.465 264.667 759.931 270.867 760.331 277.4C760.731 283.8 761.065 289.933 761.331 295.8C761.731 301.667 761.931 306.533 761.931 310.4V341H733.931ZM860.253 341V211H948.653V239.8H894.653V260.2H940.653V289H894.653V312.2H950.653V341H860.253ZM975.375 341V211H1010.18L1031.98 269L1042.58 298.2H1043.38C1042.58 291.133 1041.58 283.133 1040.38 274.2C1039.18 265.133 1038.58 256.6 1038.58 248.6V211H1071.38V341H1036.58L1014.77 282.8L1004.18 253.8H1003.38C1004.18 261.133 1005.18 269.267 1006.38 278.2C1007.58 287 1008.18 295.4 1008.18 303.4V341H975.375ZM1126.1 341V239.8H1088.7V211H1197.9V239.8H1160.5V341H1126.1ZM63.2 523.4C54.6667 523.4 45.9333 521.867 37 518.8C28.2 515.733 20.1333 511.067 12.8 504.8L32.4 481.2C37.3333 484.933 42.6 488 48.2 490.4C53.9333 492.667 59.7333 493.8 65.6 493.8C70.8 493.8 74.4667 493.067 76.6 491.6C78.8667 490.133 80 488.333 80 486.2C80 483.667 79.2667 481.667 77.8 480.2C76.3333 478.733 74.2 477.4 71.4 476.2C68.6 475 65.2 473.6 61.2 472L45 465.2C40.0667 463.333 35.4667 460.8 31.2 457.6C27.0667 454.267 23.7333 450.267 21.2 445.6C18.8 440.8 17.6 435.267 17.6 429C17.6 421.533 19.6667 414.8 23.8 408.8C27.9333 402.667 33.7333 397.8 41.2 394.2C48.6667 390.467 57.3333 388.6 67.2 388.6C74.9333 388.6 82.6667 390.067 90.4 393C98.2667 395.8 105.333 400.133 111.6 406L94.4 427.6C89.7333 424.533 85.2667 422.2 81 420.6C76.7333 419 71.4667 418.2 65.2 418.2C61.4667 418.2 58.4 418.933 56 420.4C53.6 421.733 52.4 423.933 52.4 427C52.4 429 53.2 430.667 54.8 432C56.4 433.333 58.7333 434.6 61.8 435.8C64.8667 437 68.5333 438.4 72.8 440L87.8 446.2C93.6667 448.333 98.6 451.067 102.6 454.4C106.733 457.6 109.867 461.467 112 466C114.133 470.533 115.2 475.8 115.2 481.8C115.2 489.133 113.2 496 109.2 502.4C105.2 508.667 99.3333 513.733 91.6 517.6C83.8667 521.467 74.4 523.4 63.2 523.4ZM166.722 521V478L125.522 391H162.322L173.122 419.4C174.855 424.333 176.589 429.2 178.322 434C180.189 438.8 181.989 443.8 183.722 449H184.522C186.389 443.8 188.255 438.8 190.122 434C191.989 429.2 193.789 424.333 195.522 419.4L206.322 391H242.322L201.122 478V521H166.722ZM303.044 523.4C294.51 523.4 285.777 521.867 276.844 518.8C268.044 515.733 259.977 511.067 252.644 504.8L272.244 481.2C277.177 484.933 282.444 488 288.044 490.4C293.777 492.667 299.577 493.8 305.444 493.8C310.644 493.8 314.31 493.067 316.444 491.6C318.71 490.133 319.844 488.333 319.844 486.2C319.844 483.667 319.11 481.667 317.644 480.2C316.177 478.733 314.044 477.4 311.244 476.2C308.444 475 305.044 473.6 301.044 472L284.844 465.2C279.91 463.333 275.31 460.8 271.044 457.6C266.91 454.267 263.577 450.267 261.044 445.6C258.644 440.8 257.444 435.267 257.444 429C257.444 421.533 259.51 414.8 263.644 408.8C267.777 402.667 273.577 397.8 281.044 394.2C288.51 390.467 297.177 388.6 307.044 388.6C314.777 388.6 322.51 390.067 330.244 393C338.11 395.8 345.177 400.133 351.444 406L334.244 427.6C329.577 424.533 325.11 422.2 320.844 420.6C316.577 419 311.31 418.2 305.044 418.2C301.31 418.2 298.244 418.933 295.844 420.4C293.444 421.733 292.244 423.933 292.244 427C292.244 429 293.044 430.667 294.644 432C296.244 433.333 298.577 434.6 301.644 435.8C304.71 437 308.377 438.4 312.644 440L327.644 446.2C333.51 448.333 338.444 451.067 342.444 454.4C346.577 457.6 349.71 461.467 351.844 466C353.977 470.533 355.044 475.8 355.044 481.8C355.044 489.133 353.044 496 349.044 502.4C345.044 508.667 339.177 513.733 331.444 517.6C323.71 521.467 314.244 523.4 303.044 523.4ZM406.566 521V419.8H369.166V391H478.366V419.8H440.966V521H406.566ZM500.488 521V391H588.888V419.8H534.888V440.2H580.888V469H534.888V492.2H590.888V521H500.488ZM614.009 521V391H649.009L659.609 433.4L663.209 450.2H664.009L667.609 433.4L678.209 391H713.209V521H684.809V490.4C684.809 486.533 684.943 481.667 685.209 475.8C685.609 469.933 686.009 463.8 686.409 457.4C686.809 450.867 687.276 444.667 687.809 438.8C688.343 432.933 688.809 428.133 689.209 424.4H688.609L677.609 463L670.809 486.6H655.609L648.409 463L638.409 424.4H637.609C638.009 428.133 638.476 432.933 639.009 438.8C639.543 444.667 640.009 450.867 640.409 457.4C640.809 463.8 641.143 469.933 641.409 475.8C641.809 481.667 642.009 486.533 642.009 490.4V521H614.009Z" fill="black"/>
<path d="M7.9 626L12.6 560.5H22.9L18.8 601.5C18.6667 603.3 18.4667 605.167 18.2 607.1C17.9333 608.967 17.7 610.733 17.5 612.4C17.3 614 17.1 615.3 16.9 616.3H17.3C17.5667 615.433 17.9333 614.333 18.4 613C18.9333 611.667 19.5 610.267 20.1 608.8C20.7 607.267 21.2667 605.833 21.8 604.5C22.3333 603.167 22.7667 602.133 23.1 601.4L33.3 578.2H41L42.4 598.6C42.5333 600 42.6333 601.767 42.7 603.9C42.8333 605.967 42.9333 608.1 43 610.3C43.1333 612.5 43.2 614.433 43.2 616.1H43.7C43.9 615.3 44.1333 614.233 44.4 612.9C44.7333 611.567 45.0667 610.167 45.4 608.7C45.7333 607.167 46.0667 605.733 46.4 604.4C46.7333 603 47.0333 601.933 47.3 601.2L58.7 560.5H69L48.8 626H36.3L35.4 602.1C35.3333 600.1 35.2667 597.933 35.2 595.6C35.2 593.2 35.2 591.167 35.2 589.5H34.8C34.3333 591.233 33.7 593.267 32.9 595.6C32.1 597.933 31.3 600.1 30.5 602.1L20.8 626H7.9ZM90.8609 627.2C86.5943 627.2 82.8609 626.4 79.6609 624.8C76.4609 623.2 73.9609 620.833 72.1609 617.7C70.3609 614.5 69.4609 610.5 69.4609 605.7C69.4609 601.233 70.1943 597.2 71.6609 593.6C73.1943 589.933 75.2609 586.767 77.8609 584.1C80.5276 581.367 83.5609 579.3 86.9609 577.9C90.3609 576.433 93.9276 575.7 97.6609 575.7C103.861 575.7 108.628 577.5 111.961 581.1C115.361 584.633 117.061 589.2 117.061 594.8C117.061 596.667 116.861 598.533 116.461 600.4C116.128 602.267 115.828 603.567 115.561 604.3H77.5609L78.7609 596.9H110.061L106.461 598.7C106.661 598.033 106.794 597.333 106.861 596.6C106.994 595.867 107.061 595.167 107.061 594.5C107.061 591.167 106.161 588.6 104.361 586.8C102.628 584.933 100.261 584 97.2609 584C95.3276 584 93.3276 584.5 91.2609 585.5C89.2609 586.433 87.4276 587.8 85.7609 589.6C84.0943 591.4 82.7276 593.633 81.6609 596.3C80.5943 598.9 80.0609 601.867 80.0609 605.2C80.0609 608.333 80.6276 610.9 81.7609 612.9C82.8943 614.9 84.4276 616.4 86.3609 617.4C88.3609 618.4 90.6276 618.9 93.1609 618.9C96.1609 618.9 98.9609 618.367 101.561 617.3C104.161 616.167 106.594 614.767 108.861 613.1L112.661 620.3C109.928 622.3 106.694 623.967 102.961 625.3C99.2276 626.567 95.1943 627.2 90.8609 627.2ZM151.822 627.2C148.822 627.2 146.055 626.567 143.522 625.3C140.989 623.967 139.022 622.3 137.622 620.3H137.322L135.322 626H126.522L140.622 555.4H151.322L147.822 572.8L145.022 583.4H145.322C147.655 581.2 150.289 579.367 153.222 577.9C156.155 576.433 159.055 575.7 161.922 575.7C167.122 575.7 171.189 577.367 174.122 580.7C177.055 584.033 178.522 588.8 178.522 595C178.522 599.467 177.822 603.667 176.422 607.6C175.022 611.467 173.089 614.867 170.622 617.8C168.155 620.733 165.322 623.033 162.122 624.7C158.922 626.367 155.489 627.2 151.822 627.2ZM150.422 618.4C152.822 618.4 155.022 617.833 157.022 616.7C159.089 615.567 160.889 614 162.422 612C163.955 610 165.155 607.667 166.022 605C166.955 602.333 167.422 599.467 167.422 596.4C167.422 592.333 166.555 589.333 164.822 587.4C163.089 585.467 160.822 584.5 158.022 584.5C155.889 584.5 153.555 585.233 151.022 586.7C148.489 588.167 146.089 590.333 143.822 593.2L139.922 612.6C141.322 614.667 142.922 616.167 144.722 617.1C146.522 617.967 148.422 618.4 150.422 618.4ZM264.544 627.2C259.61 627.2 255.644 625.6 252.644 622.4C249.644 619.133 248.144 614.433 248.144 608.3C248.144 603.833 248.844 599.633 250.244 595.7C251.71 591.767 253.644 588.3 256.044 585.3C258.51 582.3 261.344 579.967 264.544 578.3C267.81 576.567 271.244 575.7 274.844 575.7C278.177 575.7 280.977 576.3 283.244 577.5C285.577 578.633 287.41 580.2 288.744 582.2H289.044L290.444 572.8L293.844 555.4H304.544L290.344 626H281.544L282.044 618.9H281.644C279.244 621.433 276.544 623.467 273.544 625C270.544 626.467 267.544 627.2 264.544 627.2ZM268.344 618.4C270.61 618.4 273.01 617.7 275.544 616.3C278.144 614.833 280.577 612.667 282.844 609.8L286.844 590.5C285.577 588.367 284.01 586.833 282.144 585.9C280.277 584.967 278.41 584.5 276.544 584.5C274.21 584.5 271.977 585.1 269.844 586.3C267.777 587.433 265.944 589.033 264.344 591.1C262.744 593.167 261.477 595.567 260.544 598.3C259.677 600.967 259.244 603.8 259.244 606.8C259.244 610.733 260.077 613.667 261.744 615.6C263.41 617.467 265.61 618.4 268.344 618.4ZM329.005 627.2C324.605 627.2 320.805 626.3 317.605 624.5C314.471 622.7 312.038 620.167 310.305 616.9C308.638 613.633 307.805 609.833 307.805 605.5C307.805 601.167 308.571 597.167 310.105 593.5C311.638 589.833 313.738 586.667 316.405 584C319.071 581.333 322.105 579.3 325.505 577.9C328.971 576.433 332.538 575.7 336.205 575.7C340.605 575.7 344.371 576.6 347.505 578.4C350.705 580.2 353.138 582.733 354.805 586C356.538 589.267 357.405 593.067 357.405 597.4C357.405 601.733 356.638 605.733 355.105 609.4C353.571 613.067 351.471 616.233 348.805 618.9C346.138 621.5 343.105 623.533 339.705 625C336.305 626.467 332.738 627.2 329.005 627.2ZM329.805 618.4C332.005 618.4 334.105 617.867 336.105 616.8C338.105 615.733 339.871 614.3 341.405 612.5C343.005 610.633 344.271 608.467 345.205 606C346.138 603.467 346.605 600.733 346.605 597.8C346.605 593.667 345.605 590.433 343.605 588.1C341.671 585.7 338.938 584.5 335.405 584.5C333.271 584.5 331.171 585.033 329.105 586.1C327.105 587.1 325.305 588.533 323.705 590.4C322.171 592.2 320.938 594.367 320.005 596.9C319.138 599.367 318.705 602.067 318.705 605C318.705 609.2 319.671 612.5 321.605 614.9C323.605 617.233 326.338 618.4 329.805 618.4ZM393.166 627.2C388.899 627.2 385.032 626.4 381.566 624.8C378.099 623.2 375.332 620.8 373.266 617.6C371.199 614.4 370.166 610.4 370.166 605.6C370.166 601.133 370.966 597.067 372.566 593.4C374.166 589.733 376.366 586.6 379.166 584C381.966 581.333 385.132 579.3 388.666 577.9C392.266 576.433 396.032 575.7 399.966 575.7C404.299 575.7 408.032 576.6 411.166 578.4C414.366 580.2 416.832 582.267 418.566 584.6L411.966 590.6C410.232 588.533 408.299 587 406.166 586C404.099 585 401.699 584.5 398.966 584.5C396.766 584.5 394.599 585.033 392.466 586.1C390.332 587.1 388.366 588.5 386.566 590.3C384.832 592.1 383.466 594.233 382.466 596.7C381.466 599.1 380.966 601.733 380.966 604.6C380.966 609.2 382.299 612.667 384.966 615C387.632 617.267 390.899 618.4 394.766 618.4C397.366 618.4 399.799 617.833 402.066 616.7C404.399 615.5 406.599 614 408.666 612.2L412.666 619.5C410.199 621.833 407.266 623.7 403.866 625.1C400.532 626.5 396.966 627.2 393.166 627.2ZM441.127 627.2C436.927 627.2 433.76 626.1 431.627 623.9C429.493 621.7 428.427 618.667 428.427 614.8C428.427 613.467 428.493 612.167 428.627 610.9C428.827 609.633 429.06 608.367 429.327 607.1L435.327 576.9H446.127L440.327 605.8C440.06 606.933 439.827 607.967 439.627 608.9C439.493 609.833 439.427 610.767 439.427 611.7C439.427 613.767 439.993 615.333 441.127 616.4C442.26 617.467 443.827 618 445.827 618C448.493 618 451.227 617.1 454.027 615.3C456.893 613.5 459.727 610.967 462.527 607.7L468.627 576.9H479.327L469.627 626H460.927L461.827 616.8H461.427C459.627 618.6 457.66 620.3 455.527 621.9C453.393 623.433 451.127 624.7 448.727 625.7C446.327 626.7 443.793 627.2 441.127 627.2ZM482.687 626L492.388 576.9H500.288L499.888 583.4H500.188C501.921 581.133 503.888 579.3 506.088 577.9C508.288 576.433 510.721 575.7 513.388 575.7C515.588 575.7 517.288 576.333 518.488 577.6C519.688 578.867 520.354 580.933 520.488 583.8L519.288 584.7C521.488 581.567 523.788 579.3 526.188 577.9C528.654 576.433 531.188 575.7 533.788 575.7C536.121 575.7 537.988 576.433 539.388 577.9C540.788 579.3 541.488 581.467 541.488 584.4C541.488 585.267 541.421 586.1 541.288 586.9C541.221 587.633 541.088 588.567 540.888 589.7L533.488 626H523.288L530.288 591.5C530.421 590.767 530.521 590.167 530.588 589.7C530.654 589.233 530.688 588.8 530.688 588.4C530.688 587.067 530.454 586.167 529.988 585.7C529.521 585.167 528.821 584.9 527.888 584.9C526.488 584.9 525.121 585.433 523.788 586.5C522.521 587.567 521.188 589.2 519.788 591.4L512.688 626H503.488L510.688 591.5C510.821 590.767 510.888 590.167 510.888 589.7C510.954 589.233 510.988 588.8 510.988 588.4C510.988 587.067 510.721 586.167 510.188 585.7C509.654 585.167 508.954 584.9 508.088 584.9C506.621 584.9 505.221 585.433 503.888 586.5C502.554 587.567 501.121 589.233 499.588 591.5L492.888 626H482.687ZM570.548 627.2C566.282 627.2 562.548 626.4 559.348 624.8C556.148 623.2 553.648 620.833 551.848 617.7C550.048 614.5 549.148 610.5 549.148 605.7C549.148 601.233 549.882 597.2 551.348 593.6C552.882 589.933 554.948 586.767 557.548 584.1C560.215 581.367 563.248 579.3 566.648 577.9C570.048 576.433 573.615 575.7 577.348 575.7C583.548 575.7 588.315 577.5 591.648 581.1C595.048 584.633 596.748 589.2 596.748 594.8C596.748 596.667 596.548 598.533 596.148 600.4C595.815 602.267 595.515 603.567 595.248 604.3H557.248L558.448 596.9H589.748L586.148 598.7C586.348 598.033 586.482 597.333 586.548 596.6C586.682 595.867 586.748 595.167 586.748 594.5C586.748 591.167 585.848 588.6 584.048 586.8C582.315 584.933 579.948 584 576.948 584C575.015 584 573.015 584.5 570.948 585.5C568.948 586.433 567.115 587.8 565.448 589.6C563.782 591.4 562.415 593.633 561.348 596.3C560.282 598.9 559.748 601.867 559.748 605.2C559.748 608.333 560.315 610.9 561.448 612.9C562.582 614.9 564.115 616.4 566.048 617.4C568.048 618.4 570.315 618.9 572.848 618.9C575.848 618.9 578.648 618.367 581.248 617.3C583.848 616.167 586.282 614.767 588.548 613.1L592.348 620.3C589.615 622.3 586.382 623.967 582.648 625.3C578.915 626.567 574.882 627.2 570.548 627.2ZM606.209 626L615.909 576.9H624.609L623.709 586.1H624.109C625.909 584.3 627.909 582.633 630.109 581.1C632.309 579.5 634.609 578.2 637.009 577.2C639.476 576.2 642.009 575.7 644.609 575.7C648.876 575.7 652.043 576.8 654.109 579C656.243 581.133 657.309 584.167 657.309 588.1C657.309 589.367 657.243 590.667 657.109 592C656.976 593.267 656.743 594.533 656.409 595.8L650.409 626H639.709L645.509 597.1C645.776 595.9 645.976 594.833 646.109 593.9C646.243 592.967 646.309 592.033 646.309 591.1C646.309 589.033 645.743 587.5 644.609 586.5C643.543 585.433 641.976 584.9 639.909 584.9C637.243 584.9 634.443 585.8 631.509 587.6C628.643 589.333 625.809 591.867 623.009 595.2L616.909 626H606.209ZM694.37 627.2C688.904 627.2 684.904 625.867 682.37 623.2C679.837 620.533 678.57 617.033 678.57 612.7C678.57 611.7 678.637 610.7 678.77 609.7C678.904 608.7 679.104 607.567 679.37 606.3L683.67 585.4H670.07L671.67 577.4L685.87 576.9L690.07 562.9H698.97L696.07 576.9H718.57L716.87 585.4H694.27L689.87 606.2C689.67 607.067 689.537 607.833 689.47 608.5C689.47 609.1 689.47 609.7 689.47 610.3C689.47 613.1 690.204 615.167 691.67 616.5C693.137 617.767 695.07 618.4 697.47 618.4C699.737 618.4 701.87 618.033 703.87 617.3C705.87 616.567 707.67 615.733 709.27 614.8L712.57 622.4C710.437 623.733 707.77 624.867 704.57 625.8C701.37 626.733 697.97 627.2 694.37 627.2ZM744.331 627.2C739.331 627.2 735.331 625.6 732.331 622.4C729.331 619.133 727.831 614.433 727.831 608.3C727.831 603.833 728.531 599.633 729.931 595.7C731.398 591.767 733.331 588.3 735.731 585.3C738.198 582.3 741.031 579.967 744.231 578.3C747.498 576.567 750.931 575.7 754.531 575.7C757.865 575.7 760.765 576.333 763.231 577.6C765.698 578.8 767.531 580.467 768.731 582.6H769.131L771.231 576.9H779.831L770.031 626H761.231L761.731 618.9H761.331C758.931 621.433 756.231 623.467 753.231 625C750.231 626.467 747.265 627.2 744.331 627.2ZM748.031 618.4C750.298 618.4 752.698 617.7 755.231 616.3C757.831 614.833 760.265 612.667 762.531 609.8L766.631 590.5C765.298 588.367 763.698 586.833 761.831 585.9C759.965 584.967 758.098 584.5 756.231 584.5C753.898 584.5 751.665 585.1 749.531 586.3C747.465 587.433 745.631 589.033 744.031 591.1C742.431 593.167 741.165 595.567 740.231 598.3C739.365 600.967 738.931 603.8 738.931 606.8C738.931 610.8 739.765 613.733 741.431 615.6C743.098 617.467 745.298 618.4 748.031 618.4ZM814.292 627.2C808.826 627.2 804.826 625.867 802.292 623.2C799.759 620.533 798.492 617.033 798.492 612.7C798.492 611.7 798.559 610.7 798.692 609.7C798.826 608.7 799.026 607.567 799.292 606.3L803.592 585.4H789.992L791.592 577.4L805.792 576.9L809.992 562.9H818.892L815.992 576.9H838.492L836.792 585.4H814.192L809.792 606.2C809.592 607.067 809.459 607.833 809.392 608.5C809.392 609.1 809.392 609.7 809.392 610.3C809.392 613.1 810.126 615.167 811.592 616.5C813.059 617.767 814.992 618.4 817.392 618.4C819.659 618.4 821.792 618.033 823.792 617.3C825.792 616.567 827.592 615.733 829.192 614.8L832.492 622.4C830.359 623.733 827.692 624.867 824.492 625.8C821.292 626.733 817.892 627.2 814.292 627.2ZM877.853 627.2C873.586 627.2 870.12 626.067 867.453 623.8C864.786 621.467 863.453 618.2 863.453 614C863.453 613.133 863.52 612.233 863.653 611.3C863.853 610.3 864.086 609.3 864.353 608.3L869.653 585.4H852.653L854.353 576.9H882.153L874.753 609C874.686 609.533 874.586 610.033 874.453 610.5C874.386 610.967 874.353 611.433 874.353 611.9C874.353 614.167 874.986 615.833 876.253 616.9C877.52 617.9 879.153 618.4 881.153 618.4C882.553 618.4 883.886 618.2 885.153 617.8C886.486 617.4 887.986 616.833 889.653 616.1L891.953 624.1C889.82 625.033 887.653 625.767 885.453 626.3C883.253 626.9 880.72 627.2 877.853 627.2ZM877.753 567.8C875.886 567.8 874.22 567.267 872.753 566.2C871.286 565.067 870.553 563.4 870.553 561.2C870.553 559.733 870.92 558.4 871.653 557.2C872.453 555.933 873.486 554.933 874.753 554.2C876.086 553.4 877.52 553 879.053 553C881.186 553 882.92 553.567 884.253 554.7C885.653 555.833 886.353 557.467 886.353 559.6C886.353 561.867 885.486 563.8 883.753 565.4C882.086 567 880.086 567.8 877.753 567.8ZM928.614 627.2C924.214 627.2 920.414 626.3 917.214 624.5C914.081 622.7 911.647 620.167 909.914 616.9C908.247 613.633 907.414 609.833 907.414 605.5C907.414 601.167 908.181 597.167 909.714 593.5C911.247 589.833 913.347 586.667 916.014 584C918.681 581.333 921.714 579.3 925.114 577.9C928.581 576.433 932.147 575.7 935.814 575.7C940.214 575.7 943.981 576.6 947.114 578.4C950.314 580.2 952.747 582.733 954.414 586C956.147 589.267 957.014 593.067 957.014 597.4C957.014 601.733 956.247 605.733 954.714 609.4C953.181 613.067 951.081 616.233 948.414 618.9C945.747 621.5 942.714 623.533 939.314 625C935.914 626.467 932.347 627.2 928.614 627.2ZM929.414 618.4C931.614 618.4 933.714 617.867 935.714 616.8C937.714 615.733 939.481 614.3 941.014 612.5C942.614 610.633 943.881 608.467 944.814 606C945.747 603.467 946.214 600.733 946.214 597.8C946.214 593.667 945.214 590.433 943.214 588.1C941.281 585.7 938.547 584.5 935.014 584.5C932.881 584.5 930.781 585.033 928.714 586.1C926.714 587.1 924.914 588.533 923.314 590.4C921.781 592.2 920.547 594.367 919.614 596.9C918.747 599.367 918.314 602.067 918.314 605C918.314 609.2 919.281 612.5 921.214 614.9C923.214 617.233 925.947 618.4 929.414 618.4ZM965.975 626L975.675 576.9H984.375L983.475 586.1H983.875C985.675 584.3 987.675 582.633 989.875 581.1C992.075 579.5 994.375 578.2 996.775 577.2C999.242 576.2 1001.78 575.7 1004.38 575.7C1008.64 575.7 1011.81 576.8 1013.87 579C1016.01 581.133 1017.08 584.167 1017.08 588.1C1017.08 589.367 1017.01 590.667 1016.88 592C1016.74 593.267 1016.51 594.533 1016.17 595.8L1010.18 626H999.475L1005.28 597.1C1005.54 595.9 1005.74 594.833 1005.88 593.9C1006.01 592.967 1006.08 592.033 1006.08 591.1C1006.08 589.033 1005.51 587.5 1004.38 586.5C1003.31 585.433 1001.74 584.9 999.675 584.9C997.008 584.9 994.208 585.8 991.275 587.6C988.408 589.333 985.575 591.867 982.775 595.2L976.675 626H965.975ZM1098.9 626L1109.5 573.2C1110.83 566.667 1113.4 561.867 1117.2 558.8C1121 555.733 1125.86 554.2 1131.8 554.2C1135.13 554.2 1138.06 554.7 1140.6 555.7C1143.13 556.7 1145.2 557.867 1146.8 559.2L1141.9 566C1140.5 564.933 1139.03 564.133 1137.5 563.6C1135.96 563.067 1134.2 562.8 1132.2 562.8C1129.2 562.8 1126.63 563.6 1124.5 565.2C1122.36 566.8 1120.9 569.533 1120.1 573.4L1109.7 626H1098.9ZM1093.4 585.4L1095 577.4L1108.9 576.9H1138.3L1136.6 585.4H1093.4ZM1168.46 627.2C1164.06 627.2 1160.26 626.3 1157.06 624.5C1153.92 622.7 1151.49 620.167 1149.76 616.9C1148.09 613.633 1147.26 609.833 1147.26 605.5C1147.26 601.167 1148.02 597.167 1149.56 593.5C1151.09 589.833 1153.19 586.667 1155.86 584C1158.52 581.333 1161.56 579.3 1164.96 577.9C1168.42 576.433 1171.99 575.7 1175.66 575.7C1180.06 575.7 1183.82 576.6 1186.96 578.4C1190.16 580.2 1192.59 582.733 1194.26 586C1195.99 589.267 1196.86 593.067 1196.86 597.4C1196.86 601.733 1196.09 605.733 1194.56 609.4C1193.02 613.067 1190.92 616.233 1188.26 618.9C1185.59 621.5 1182.56 623.533 1179.16 625C1175.76 626.467 1172.19 627.2 1168.46 627.2ZM1169.26 618.4C1171.46 618.4 1173.56 617.867 1175.56 616.8C1177.56 615.733 1179.32 614.3 1180.86 612.5C1182.46 610.633 1183.72 608.467 1184.66 606C1185.59 603.467 1186.06 600.733 1186.06 597.8C1186.06 593.667 1185.06 590.433 1183.06 588.1C1181.12 585.7 1178.39 584.5 1174.86 584.5C1172.72 584.5 1170.62 585.033 1168.56 586.1C1166.56 587.1 1164.76 588.533 1163.16 590.4C1161.62 592.2 1160.39 594.367 1159.46 596.9C1158.59 599.367 1158.16 602.067 1158.16 605C1158.16 609.2 1159.12 612.5 1161.06 614.9C1163.06 617.233 1165.79 618.4 1169.26 618.4ZM1211.72 626L1221.42 576.8L1230.22 576.9L1228.42 590.4H1228.82C1230.62 587.6 1232.65 585.1 1234.92 582.9C1237.19 580.633 1239.59 578.867 1242.12 577.6C1244.65 576.333 1247.25 575.7 1249.92 575.7C1252.12 575.7 1254.05 575.9 1255.72 576.3C1257.39 576.7 1258.72 577.267 1259.72 578L1255.72 587.2C1254.59 586.533 1253.39 586.067 1252.12 585.8C1250.85 585.467 1249.45 585.3 1247.92 585.3C1244.39 585.3 1240.82 586.867 1237.22 590C1233.69 593.067 1230.35 597.2 1227.22 602.4L1222.42 626H1211.72ZM0.7 726L35.2 660.6H47.9L55.3 726H44L41.4 689.5C41.1333 686.167 40.8667 682.8 40.6 679.4C40.4 676 40.2 672.567 40 669.1H39.5C37.9 672.5 36.3333 675.867 34.8 679.2C33.3333 682.533 31.7667 685.933 30.1 689.4L12.5 726H0.7ZM16.8 707.6L18.8 699.4H48.2L46.4 707.6H16.8ZM67.9609 726L81.0609 660.6H100.361C104.561 660.6 108.261 661.167 111.461 662.3C114.728 663.433 117.294 665.233 119.161 667.7C121.094 670.1 122.061 673.3 122.061 677.3C122.061 681.567 121.294 685.233 119.761 688.3C118.294 691.367 116.228 693.9 113.561 695.9C110.894 697.833 107.761 699.267 104.161 700.2C100.628 701.067 96.8276 701.5 92.7609 701.5H83.6609L78.7609 726H67.9609ZM85.3609 692.9H93.1609C99.0276 692.9 103.494 691.733 106.561 689.4C109.628 687 111.161 683.467 111.161 678.8C111.161 675.4 110.061 672.967 107.861 671.5C105.661 669.967 102.428 669.2 98.1609 669.2H90.0609L85.3609 692.9ZM126.422 726L128.322 716.9H144.022L153.522 669.7H137.722L139.622 660.6H182.122L180.222 669.7H164.322L154.822 716.9H170.722L168.822 726H126.422ZM248.744 726L261.844 660.6H303.344L301.544 669.7H270.744L267.244 687.3H292.944L291.144 696.4H265.544L261.244 716.9H292.944L291.144 726H248.744ZM306.405 726L316.105 676.9H324.805L323.905 686.1H324.305C326.105 684.3 328.105 682.633 330.305 681.1C332.505 679.5 334.805 678.2 337.205 677.2C339.671 676.2 342.205 675.7 344.805 675.7C349.071 675.7 352.238 676.8 354.305 679C356.438 681.133 357.505 684.167 357.505 688.1C357.505 689.367 357.438 690.667 357.305 692C357.171 693.267 356.938 694.533 356.605 695.8L350.605 726H339.905L345.705 697.1C345.971 695.9 346.171 694.833 346.305 693.9C346.438 692.967 346.505 692.033 346.505 691.1C346.505 689.033 345.938 687.5 344.805 686.5C343.738 685.433 342.171 684.9 340.105 684.9C337.438 684.9 334.638 685.8 331.705 687.6C328.838 689.333 326.005 691.867 323.205 695.2L317.105 726H306.405ZM384.466 727.2C379.532 727.2 375.566 725.6 372.566 722.4C369.566 719.133 368.066 714.433 368.066 708.3C368.066 703.833 368.766 699.633 370.166 695.7C371.632 691.767 373.566 688.3 375.966 685.3C378.432 682.3 381.266 679.967 384.466 678.3C387.732 676.567 391.166 675.7 394.766 675.7C398.099 675.7 400.899 676.3 403.166 677.5C405.499 678.633 407.332 680.2 408.666 682.2H408.966L410.366 672.8L413.766 655.4H424.466L410.266 726H401.466L401.966 718.9H401.566C399.166 721.433 396.466 723.467 393.466 725C390.466 726.467 387.466 727.2 384.466 727.2ZM388.266 718.4C390.532 718.4 392.932 717.7 395.466 716.3C398.066 714.833 400.499 712.667 402.766 709.8L406.766 690.5C405.499 688.367 403.932 686.833 402.066 685.9C400.199 684.967 398.332 684.5 396.466 684.5C394.132 684.5 391.899 685.1 389.766 686.3C387.699 687.433 385.866 689.033 384.266 691.1C382.666 693.167 381.399 695.567 380.466 698.3C379.599 700.967 379.166 703.8 379.166 706.8C379.166 710.733 379.999 713.667 381.666 715.6C383.332 717.467 385.532 718.4 388.266 718.4ZM422.327 745.4L436.127 676.9H444.927L444.427 684.2H444.727C447.193 681.733 449.86 679.7 452.727 678.1C455.593 676.5 458.66 675.7 461.927 675.7C466.927 675.7 470.893 677.367 473.827 680.7C476.827 684.033 478.327 688.8 478.327 695C478.327 701 477.193 706.433 474.927 711.3C472.727 716.167 469.627 720.033 465.627 722.9C461.627 725.767 456.96 727.2 451.627 727.2C448.76 727.2 446.093 726.6 443.627 725.4C441.227 724.2 439.26 722.667 437.727 720.8H437.527L435.927 730.8L433.127 745.4H422.327ZM450.627 718.4C452.96 718.4 455.127 717.833 457.127 716.7C459.127 715.567 460.86 714 462.327 712C463.86 710 465.06 707.667 465.927 705C466.793 702.333 467.227 699.467 467.227 696.4C467.227 692.4 466.36 689.433 464.627 687.5C462.893 685.5 460.627 684.5 457.827 684.5C455.693 684.5 453.36 685.233 450.827 686.7C448.36 688.167 445.993 690.333 443.727 693.2L439.727 712.6C441.127 714.667 442.793 716.167 444.727 717.1C446.66 717.967 448.627 718.4 450.627 718.4ZM508.888 727.2C504.488 727.2 500.688 726.3 497.488 724.5C494.354 722.7 491.921 720.167 490.188 716.9C488.521 713.633 487.688 709.833 487.688 705.5C487.688 701.167 488.454 697.167 489.988 693.5C491.521 689.833 493.621 686.667 496.288 684C498.954 681.333 501.988 679.3 505.388 677.9C508.854 676.433 512.421 675.7 516.088 675.7C520.488 675.7 524.254 676.6 527.388 678.4C530.588 680.2 533.021 682.733 534.688 686C536.421 689.267 537.288 693.067 537.288 697.4C537.288 701.733 536.521 705.733 534.988 709.4C533.454 713.067 531.354 716.233 528.688 718.9C526.021 721.5 522.988 723.533 519.588 725C516.188 726.467 512.621 727.2 508.888 727.2ZM509.688 718.4C511.888 718.4 513.988 717.867 515.988 716.8C517.988 715.733 519.754 714.3 521.288 712.5C522.888 710.633 524.154 708.467 525.088 706C526.021 703.467 526.488 700.733 526.488 697.8C526.488 693.667 525.488 690.433 523.488 688.1C521.554 685.7 518.821 684.5 515.288 684.5C513.154 684.5 511.054 685.033 508.988 686.1C506.988 687.1 505.188 688.533 503.588 690.4C502.054 692.2 500.821 694.367 499.888 696.9C499.021 699.367 498.588 702.067 498.588 705C498.588 709.2 499.554 712.5 501.488 714.9C503.488 717.233 506.221 718.4 509.688 718.4ZM578.048 727.2C573.782 727.2 570.315 726.067 567.648 723.8C564.982 721.467 563.648 718.2 563.648 714C563.648 713.133 563.715 712.233 563.848 711.3C564.048 710.3 564.282 709.3 564.548 708.3L569.848 685.4H552.848L554.548 676.9H582.348L574.948 709C574.882 709.533 574.782 710.033 574.648 710.5C574.582 710.967 574.548 711.433 574.548 711.9C574.548 714.167 575.182 715.833 576.448 716.9C577.715 717.9 579.348 718.4 581.348 718.4C582.748 718.4 584.082 718.2 585.348 717.8C586.682 717.4 588.182 716.833 589.848 716.1L592.148 724.1C590.015 725.033 587.848 725.767 585.648 726.3C583.448 726.9 580.915 727.2 578.048 727.2ZM577.948 667.8C576.082 667.8 574.415 667.267 572.948 666.2C571.482 665.067 570.748 663.4 570.748 661.2C570.748 659.733 571.115 658.4 571.848 657.2C572.648 655.933 573.682 654.933 574.948 654.2C576.282 653.4 577.715 653 579.248 653C581.382 653 583.115 653.567 584.448 654.7C585.848 655.833 586.548 657.467 586.548 659.6C586.548 661.867 585.682 663.8 583.948 665.4C582.282 667 580.282 667.8 577.948 667.8ZM606.209 726L615.909 676.9H624.609L623.709 686.1H624.109C625.909 684.3 627.909 682.633 630.109 681.1C632.309 679.5 634.609 678.2 637.009 677.2C639.476 676.2 642.009 675.7 644.609 675.7C648.876 675.7 652.043 676.8 654.109 679C656.243 681.133 657.309 684.167 657.309 688.1C657.309 689.367 657.243 690.667 657.109 692C656.976 693.267 656.743 694.533 656.409 695.8L650.409 726H639.709L645.509 697.1C645.776 695.9 645.976 694.833 646.109 693.9C646.243 692.967 646.309 692.033 646.309 691.1C646.309 689.033 645.743 687.5 644.609 686.5C643.543 685.433 641.976 684.9 639.909 684.9C637.243 684.9 634.443 685.8 631.509 687.6C628.643 689.333 625.809 691.867 623.009 695.2L616.909 726H606.209ZM694.37 727.2C688.904 727.2 684.904 725.867 682.37 723.2C679.837 720.533 678.57 717.033 678.57 712.7C678.57 711.7 678.637 710.7 678.77 709.7C678.904 708.7 679.104 707.567 679.37 706.3L683.67 685.4H670.07L671.67 677.4L685.87 676.9L690.07 662.9H698.97L696.07 676.9H718.57L716.87 685.4H694.27L689.87 706.2C689.67 707.067 689.537 707.833 689.47 708.5C689.47 709.1 689.47 709.7 689.47 710.3C689.47 713.1 690.204 715.167 691.67 716.5C693.137 717.767 695.07 718.4 697.47 718.4C699.737 718.4 701.87 718.033 703.87 717.3C705.87 716.567 707.67 715.733 709.27 714.8L712.57 722.4C710.437 723.733 707.77 724.867 704.57 725.8C701.37 726.733 697.97 727.2 694.37 727.2ZM750.331 727.2C747.398 727.2 744.531 726.833 741.731 726.1C738.998 725.367 736.465 724.333 734.131 723C731.865 721.6 729.865 720 728.131 718.2L734.231 711.4C736.698 714.067 739.465 716.033 742.531 717.3C745.665 718.5 748.865 719.1 752.131 719.1C754.998 719.1 757.298 718.633 759.031 717.7C760.831 716.7 761.731 715.2 761.731 713.2C761.731 711.933 761.331 710.867 760.531 710C759.731 709.133 758.498 708.367 756.831 707.7C755.165 706.967 753.065 706.167 750.531 705.3C745.465 703.633 741.665 701.667 739.131 699.4C736.665 697.067 735.431 694.133 735.431 690.6C735.431 687.267 736.331 684.5 738.131 682.3C739.998 680.1 742.398 678.467 745.331 677.4C748.265 676.267 751.498 675.7 755.031 675.7C759.831 675.7 763.931 676.5 767.331 678.1C770.731 679.7 773.531 681.567 775.731 683.7L769.731 690.1C767.731 688.433 765.398 686.967 762.731 685.7C760.065 684.433 757.131 683.8 753.931 683.8C751.331 683.8 749.265 684.267 747.731 685.2C746.265 686.133 745.531 687.5 745.531 689.3C745.531 691.1 746.431 692.533 748.231 693.6C750.098 694.667 752.931 695.867 756.731 697.2C759.731 698.2 762.365 699.333 764.631 700.6C766.965 701.8 768.765 703.3 770.031 705.1C771.298 706.833 771.931 709.067 771.931 711.8C771.931 715.333 770.965 718.267 769.031 720.6C767.098 722.867 764.498 724.533 761.231 725.6C757.965 726.667 754.331 727.2 750.331 727.2ZM864.253 727.2C859.253 727.2 855.253 725.6 852.253 722.4C849.253 719.133 847.753 714.433 847.753 708.3C847.753 703.833 848.453 699.633 849.853 695.7C851.32 691.767 853.253 688.3 855.653 685.3C858.12 682.3 860.953 679.967 864.153 678.3C867.42 676.567 870.853 675.7 874.453 675.7C877.786 675.7 880.686 676.333 883.153 677.6C885.62 678.8 887.453 680.467 888.653 682.6H889.053L891.153 676.9H899.753L889.953 726H881.153L881.653 718.9H881.253C878.853 721.433 876.153 723.467 873.153 725C870.153 726.467 867.186 727.2 864.253 727.2ZM867.953 718.4C870.22 718.4 872.62 717.7 875.153 716.3C877.753 714.833 880.186 712.667 882.453 709.8L886.553 690.5C885.22 688.367 883.62 686.833 881.753 685.9C879.886 684.967 878.02 684.5 876.153 684.5C873.82 684.5 871.586 685.1 869.453 686.3C867.386 687.433 865.553 689.033 863.953 691.1C862.353 693.167 861.086 695.567 860.153 698.3C859.286 700.967 858.853 703.8 858.853 706.8C858.853 710.8 859.686 713.733 861.353 715.6C863.02 717.467 865.22 718.4 867.953 718.4ZM906.014 726L915.714 676.9H924.414L923.514 686.1H923.914C925.714 684.3 927.714 682.633 929.914 681.1C932.114 679.5 934.414 678.2 936.814 677.2C939.281 676.2 941.814 675.7 944.414 675.7C948.681 675.7 951.847 676.8 953.914 679C956.047 681.133 957.114 684.167 957.114 688.1C957.114 689.367 957.047 690.667 956.914 692C956.781 693.267 956.547 694.533 956.214 695.8L950.214 726H939.514L945.314 697.1C945.581 695.9 945.781 694.833 945.914 693.9C946.047 692.967 946.114 692.033 946.114 691.1C946.114 689.033 945.547 687.5 944.414 686.5C943.347 685.433 941.781 684.9 939.714 684.9C937.047 684.9 934.247 685.8 931.314 687.6C928.447 689.333 925.614 691.867 922.814 695.2L916.714 726H906.014ZM984.075 727.2C979.142 727.2 975.175 725.6 972.175 722.4C969.175 719.133 967.675 714.433 967.675 708.3C967.675 703.833 968.375 699.633 969.775 695.7C971.242 691.767 973.175 688.3 975.575 685.3C978.042 682.3 980.875 679.967 984.075 678.3C987.342 676.567 990.775 675.7 994.375 675.7C997.708 675.7 1000.51 676.3 1002.78 677.5C1005.11 678.633 1006.94 680.2 1008.28 682.2H1008.58L1009.98 672.8L1013.38 655.4H1024.08L1009.88 726H1001.08L1001.58 718.9H1001.18C998.775 721.433 996.075 723.467 993.075 725C990.075 726.467 987.075 727.2 984.075 727.2ZM987.875 718.4C990.142 718.4 992.542 717.7 995.075 716.3C997.675 714.833 1000.11 712.667 1002.38 709.8L1006.38 690.5C1005.11 688.367 1003.54 686.833 1001.68 685.9C999.808 684.967 997.942 684.5 996.075 684.5C993.742 684.5 991.508 685.1 989.375 686.3C987.308 687.433 985.475 689.033 983.875 691.1C982.275 693.167 981.008 695.567 980.075 698.3C979.208 700.967 978.775 703.8 978.775 706.8C978.775 710.733 979.608 713.667 981.275 715.6C982.942 717.467 985.142 718.4 987.875 718.4ZM1085.8 726L1098.9 660.6H1117.7C1121.9 660.6 1125.63 661.133 1128.9 662.2C1132.16 663.267 1134.73 665 1136.6 667.4C1138.46 669.8 1139.4 673 1139.4 677C1139.4 680.867 1138.63 684.267 1137.1 687.2C1135.63 690.067 1133.56 692.467 1130.9 694.4C1128.3 696.333 1125.33 697.8 1122 698.8C1118.73 699.733 1115.3 700.2 1111.7 700.2H1101.7L1096.6 726H1085.8ZM1103.5 691.6H1111.2C1116.73 691.6 1121 690.367 1124 687.9C1127 685.433 1128.5 682.167 1128.5 678.1C1128.5 674.967 1127.43 672.7 1125.3 671.3C1123.16 669.9 1120.03 669.2 1115.9 669.2H1107.9L1103.5 691.6ZM1110.1 698.4L1119.3 693.9L1132.5 726H1120.5L1110.1 698.4ZM1170.16 727.2C1165.89 727.2 1162.16 726.4 1158.96 724.8C1155.76 723.2 1153.26 720.833 1151.46 717.7C1149.66 714.5 1148.76 710.5 1148.76 705.7C1148.76 701.233 1149.49 697.2 1150.96 693.6C1152.49 689.933 1154.56 686.767 1157.16 684.1C1159.82 681.367 1162.86 679.3 1166.26 677.9C1169.66 676.433 1173.22 675.7 1176.96 675.7C1183.16 675.7 1187.92 677.5 1191.26 681.1C1194.66 684.633 1196.36 689.2 1196.36 694.8C1196.36 696.667 1196.16 698.533 1195.76 700.4C1195.42 702.267 1195.12 703.567 1194.86 704.3H1156.86L1158.06 696.9H1189.36L1185.76 698.7C1185.96 698.033 1186.09 697.333 1186.16 696.6C1186.29 695.867 1186.36 695.167 1186.36 694.5C1186.36 691.167 1185.46 688.6 1183.66 686.8C1181.92 684.933 1179.56 684 1176.56 684C1174.62 684 1172.62 684.5 1170.56 685.5C1168.56 686.433 1166.72 687.8 1165.06 689.6C1163.39 691.4 1162.02 693.633 1160.96 696.3C1159.89 698.9 1159.36 701.867 1159.36 705.2C1159.36 708.333 1159.92 710.9 1161.06 712.9C1162.19 714.9 1163.72 716.4 1165.66 717.4C1167.66 718.4 1169.92 718.9 1172.46 718.9C1175.46 718.9 1178.26 718.367 1180.86 717.3C1183.46 716.167 1185.89 714.767 1188.16 713.1L1191.96 720.3C1189.22 722.3 1185.99 723.967 1182.26 725.3C1178.52 726.567 1174.49 727.2 1170.16 727.2ZM1230.02 727.2C1227.09 727.2 1224.22 726.833 1221.42 726.1C1218.69 725.367 1216.15 724.333 1213.82 723C1211.55 721.6 1209.55 720 1207.82 718.2L1213.92 711.4C1216.39 714.067 1219.15 716.033 1222.22 717.3C1225.35 718.5 1228.55 719.1 1231.82 719.1C1234.69 719.1 1236.99 718.633 1238.72 717.7C1240.52 716.7 1241.42 715.2 1241.42 713.2C1241.42 711.933 1241.02 710.867 1240.22 710C1239.42 709.133 1238.19 708.367 1236.52 707.7C1234.85 706.967 1232.75 706.167 1230.22 705.3C1225.15 703.633 1221.35 701.667 1218.82 699.4C1216.35 697.067 1215.12 694.133 1215.12 690.6C1215.12 687.267 1216.02 684.5 1217.82 682.3C1219.69 680.1 1222.09 678.467 1225.02 677.4C1227.95 676.267 1231.19 675.7 1234.72 675.7C1239.52 675.7 1243.62 676.5 1247.02 678.1C1250.42 679.7 1253.22 681.567 1255.42 683.7L1249.42 690.1C1247.42 688.433 1245.09 686.967 1242.42 685.7C1239.75 684.433 1236.82 683.8 1233.62 683.8C1231.02 683.8 1228.95 684.267 1227.42 685.2C1225.95 686.133 1225.22 687.5 1225.22 689.3C1225.22 691.1 1226.12 692.533 1227.92 693.6C1229.79 694.667 1232.62 695.867 1236.42 697.2C1239.42 698.2 1242.05 699.333 1244.32 700.6C1246.65 701.8 1248.45 703.3 1249.72 705.1C1250.99 706.833 1251.62 709.067 1251.62 711.8C1251.62 715.333 1250.65 718.267 1248.72 720.6C1246.79 722.867 1244.19 724.533 1240.92 725.6C1237.65 726.667 1234.02 727.2 1230.02 727.2ZM1288.38 727.2C1283.98 727.2 1280.18 726.3 1276.98 724.5C1273.85 722.7 1271.41 720.167 1269.68 716.9C1268.01 713.633 1267.18 709.833 1267.18 705.5C1267.18 701.167 1267.95 697.167 1269.48 693.5C1271.01 689.833 1273.11 686.667 1275.78 684C1278.45 681.333 1281.48 679.3 1284.88 677.9C1288.35 676.433 1291.91 675.7 1295.58 675.7C1299.98 675.7 1303.75 676.6 1306.88 678.4C1310.08 680.2 1312.51 682.733 1314.18 686C1315.91 689.267 1316.78 693.067 1316.78 697.4C1316.78 701.733 1316.01 705.733 1314.48 709.4C1312.95 713.067 1310.85 716.233 1308.18 718.9C1305.51 721.5 1302.48 723.533 1299.08 725C1295.68 726.467 1292.11 727.2 1288.38 727.2ZM1289.18 718.4C1291.38 718.4 1293.48 717.867 1295.48 716.8C1297.48 715.733 1299.25 714.3 1300.78 712.5C1302.38 710.633 1303.65 708.467 1304.58 706C1305.51 703.467 1305.98 700.733 1305.98 697.8C1305.98 693.667 1304.98 690.433 1302.98 688.1C1301.05 685.7 1298.31 684.5 1294.78 684.5C1292.65 684.5 1290.55 685.033 1288.48 686.1C1286.48 687.1 1284.68 688.533 1283.08 690.4C1281.55 692.2 1280.31 694.367 1279.38 696.9C1278.51 699.367 1278.08 702.067 1278.08 705C1278.08 709.2 1279.05 712.5 1280.98 714.9C1282.98 717.233 1285.71 718.4 1289.18 718.4ZM1340.54 727.2C1336.34 727.2 1333.17 726.1 1331.04 723.9C1328.91 721.7 1327.84 718.667 1327.84 714.8C1327.84 713.467 1327.91 712.167 1328.04 710.9C1328.24 709.633 1328.47 708.367 1328.74 707.1L1334.74 676.9H1345.54L1339.74 705.8C1339.47 706.933 1339.24 707.967 1339.04 708.9C1338.91 709.833 1338.84 710.767 1338.84 711.7C1338.84 713.767 1339.41 715.333 1340.54 716.4C1341.67 717.467 1343.24 718 1345.24 718C1347.91 718 1350.64 717.1 1353.44 715.3C1356.31 713.5 1359.14 710.967 1361.94 707.7L1368.04 676.9H1378.74L1369.04 726H1360.34L1361.24 716.8H1360.84C1359.04 718.6 1357.07 720.3 1354.94 721.9C1352.81 723.433 1350.54 724.7 1348.14 725.7C1345.74 726.7 1343.21 727.2 1340.54 727.2ZM1391.6 726L1401.3 676.8L1410.1 676.9L1408.3 690.4H1408.7C1410.5 687.6 1412.53 685.1 1414.8 682.9C1417.07 680.633 1419.47 678.867 1422 677.6C1424.53 676.333 1427.13 675.7 1429.8 675.7C1432 675.7 1433.93 675.9 1435.6 676.3C1437.27 676.7 1438.6 677.267 1439.6 678L1435.6 687.2C1434.47 686.533 1433.27 686.067 1432 685.8C1430.73 685.467 1429.33 685.3 1427.8 685.3C1424.27 685.3 1420.7 686.867 1417.1 690C1413.57 693.067 1410.23 697.2 1407.1 702.4L1402.3 726H1391.6ZM1472.46 727.2C1468.2 727.2 1464.33 726.4 1460.86 724.8C1457.4 723.2 1454.63 720.8 1452.56 717.6C1450.5 714.4 1449.46 710.4 1449.46 705.6C1449.46 701.133 1450.26 697.067 1451.86 693.4C1453.46 689.733 1455.66 686.6 1458.46 684C1461.26 681.333 1464.43 679.3 1467.96 677.9C1471.56 676.433 1475.33 675.7 1479.26 675.7C1483.6 675.7 1487.33 676.6 1490.46 678.4C1493.66 680.2 1496.13 682.267 1497.86 684.6L1491.26 690.6C1489.53 688.533 1487.6 687 1485.46 686C1483.4 685 1481 684.5 1478.26 684.5C1476.06 684.5 1473.9 685.033 1471.76 686.1C1469.63 687.1 1467.66 688.5 1465.86 690.3C1464.13 692.1 1462.76 694.233 1461.76 696.7C1460.76 699.1 1460.26 701.733 1460.26 704.6C1460.26 709.2 1461.6 712.667 1464.26 715C1466.93 717.267 1470.2 718.4 1474.06 718.4C1476.66 718.4 1479.1 717.833 1481.36 716.7C1483.7 715.5 1485.9 714 1487.96 712.2L1491.96 719.5C1489.5 721.833 1486.56 723.7 1483.16 725.1C1479.83 726.5 1476.26 727.2 1472.46 727.2ZM1529.92 727.2C1525.66 727.2 1521.92 726.4 1518.72 724.8C1515.52 723.2 1513.02 720.833 1511.22 717.7C1509.42 714.5 1508.52 710.5 1508.52 705.7C1508.52 701.233 1509.26 697.2 1510.72 693.6C1512.26 689.933 1514.32 686.767 1516.92 684.1C1519.59 681.367 1522.62 679.3 1526.02 677.9C1529.42 676.433 1532.99 675.7 1536.72 675.7C1542.92 675.7 1547.69 677.5 1551.02 681.1C1554.42 684.633 1556.12 689.2 1556.12 694.8C1556.12 696.667 1555.92 698.533 1555.52 700.4C1555.19 702.267 1554.89 703.567 1554.62 704.3H1516.62L1517.82 696.9H1549.12L1545.52 698.7C1545.72 698.033 1545.86 697.333 1545.92 696.6C1546.06 695.867 1546.12 695.167 1546.12 694.5C1546.12 691.167 1545.22 688.6 1543.42 686.8C1541.69 684.933 1539.32 684 1536.32 684C1534.39 684 1532.39 684.5 1530.32 685.5C1528.32 686.433 1526.49 687.8 1524.82 689.6C1523.16 691.4 1521.79 693.633 1520.72 696.3C1519.66 698.9 1519.12 701.867 1519.12 705.2C1519.12 708.333 1519.69 710.9 1520.82 712.9C1521.96 714.9 1523.49 716.4 1525.42 717.4C1527.42 718.4 1529.69 718.9 1532.22 718.9C1535.22 718.9 1538.02 718.367 1540.62 717.3C1543.22 716.167 1545.66 714.767 1547.92 713.1L1551.72 720.3C1548.99 722.3 1545.76 723.967 1542.02 725.3C1538.29 726.567 1534.26 727.2 1529.92 727.2ZM1589.78 727.2C1586.85 727.2 1583.98 726.833 1581.18 726.1C1578.45 725.367 1575.92 724.333 1573.58 723C1571.32 721.6 1569.32 720 1567.58 718.2L1573.68 711.4C1576.15 714.067 1578.92 716.033 1581.98 717.3C1585.12 718.5 1588.32 719.1 1591.58 719.1C1594.45 719.1 1596.75 718.633 1598.48 717.7C1600.28 716.7 1601.18 715.2 1601.18 713.2C1601.18 711.933 1600.78 710.867 1599.98 710C1599.18 709.133 1597.95 708.367 1596.28 707.7C1594.62 706.967 1592.52 706.167 1589.98 705.3C1584.92 703.633 1581.12 701.667 1578.58 699.4C1576.12 697.067 1574.88 694.133 1574.88 690.6C1574.88 687.267 1575.78 684.5 1577.58 682.3C1579.45 680.1 1581.85 678.467 1584.78 677.4C1587.72 676.267 1590.95 675.7 1594.48 675.7C1599.28 675.7 1603.38 676.5 1606.78 678.1C1610.18 679.7 1612.98 681.567 1615.18 683.7L1609.18 690.1C1607.18 688.433 1604.85 686.967 1602.18 685.7C1599.52 684.433 1596.58 683.8 1593.38 683.8C1590.78 683.8 1588.72 684.267 1587.18 685.2C1585.72 686.133 1584.98 687.5 1584.98 689.3C1584.98 691.1 1585.88 692.533 1587.68 693.6C1589.55 694.667 1592.38 695.867 1596.18 697.2C1599.18 698.2 1601.82 699.333 1604.08 700.6C1606.42 701.8 1608.22 703.3 1609.48 705.1C1610.75 706.833 1611.38 709.067 1611.38 711.8C1611.38 715.333 1610.42 718.267 1608.48 720.6C1606.55 722.867 1603.95 724.533 1600.68 725.6C1597.42 726.667 1593.78 727.2 1589.78 727.2Z" fill="black"/>
</svg>
